<svg version="1" xmlns="http://www.w3.org/2000/svg" width="400" height="400" viewBox="0 0 300.000000 300.000000"><path d="M134 59.6c-32.1 4-56.9 21.7-67.7 48.4-4 10-6.4 23.2-6.2 34.2l.2 9.7-4 4.5c-5.2 5.9-7.8 13.8-6.9 21.3 1.6 14 12 23.9 26.1 25.1l6 .4 4.4 8c5.1 9.1 14.1 19.3 22.5 25.5 10.5 7.7 4.8 4.5-8.7-4.9-7.3-5-15.9-12-19.2-15.4-6.6-6.9-11.6-9-18.3-7.8-5.1.9-11.8 7.7-12.7 12.8-1.6 8.5 6.5 19.1 14.7 19.1 5.2 0 9.8-4.7 9.8-9.9 0-3.7-4.1-9.6-6.6-9.6-2.3 0-2.8 3-1 6 2 3.5 2 5.4.1 7-3.3 2.8-10.1-2.9-11.2-9.3-.6-4.1 3.2-9.1 7.4-10 8.5-1.7 13.1 2.9 20.9 20.6 3.2 7.3 6.6 14.7 7.6 16.5 1 1.8 1.8 3.5 1.8 3.7 0 .3-1.6.5-3.6.5-2.3 0-5.5-1.1-8.6-3-2.6-1.7-5.3-3-5.8-3-.6 0-3.6.9-6.7 2-5.1 1.7-7.9 1.9-23.1 1.6-14.2-.3-17.5-.1-18.7 1.1-1.9 1.8-1.9 3.3 0 5.9 1.7 2.5 1.1 3.4-2.1 3.4-2.7 0-4.5 2.8-3.7 5.8.3 1.2 2.8 3.6 5.5 5.3 6.7 4.3 7.8 5.6 7.8 8.8 0 3.3 4.3 11.9 7.2 14.4 1.1.9 3.5 1.7 5.3 1.7 3.1 0 3.3-.2 3.9-4.3.4-2.7 2.2-6.5 4.9-10.2 5.2-7.3 5.9-5.5 1.7 4.3-1.6 3.9-3 7.8-3 8.7 0 2.7 2.4 1.1 3.1-2.1 1-4.4 5.5-13.9 6.1-12.8.3.5 0 3.1-.8 5.9-.7 2.7-1.3 6.2-1.4 7.8v2.7l35.3-.2 35.2-.3.3-2.7c.2-1.5 1.4-3.4 2.9-4.3 2.4-1.6 2.6-1.6 4.9.6l2.4 2.3-2.7 2.3-2.8 2.2 25 .1h25l.1-10.8c0-7.7.5-12.1 1.8-15.6 2.3-6.4 6.4-12.8 7.8-12.4 1.7.6 8.6 14.7 13.4 27.3 3.3 8.7 4.7 11.1 6.3 11.3 1.2.2 2.1.2 2.1-.1 0-1-6.1-17.3-8.6-22.6l-2.6-6 4.2-5c3.7-4.4 4.2-5.5 3.7-8.5-.6-3.9.3-4.6 6.1-4.6 3.1 0 5-1.1 11.5-6.6 4.2-3.6 7.5-7 7.1-7.5-.3-.6-1.6-1.4-2.9-1.9-1.8-.7-2.4-1.8-2.7-4.6-.2-2.1-.8-3.9-1.3-4.1-.6-.2-3.5 1.8-6.5 4.4-5.3 4.6-5.3 4.2-.3-2 3-3.8 2.9-5.5-.4-6.3-3.3-.8-4.3-2-4.3-5.2 0-4.4-3.4-2.2-9.7 6.3-5.3 7-6.3 9-6.3 12.4 0 2.3-.2 4.1-.4 4.1s-2.7-1.5-5.5-3.4l-5-3.4 4.3-3.6c5.6-4.5 12.9-14.3 16.9-22.4l3.1-6.2h4.6c9.9 0 19.4-5.7 24.8-14.8 2.4-4.1 2.7-5.7 2.7-13.2 0-9.7-1.3-13-7.6-19.5l-3.9-4-.4-13c-.6-18.4-4.5-31.1-13.7-44.7-10.9-16.1-26-26.2-47.8-31.9-5.6-1.5-11.7-2.1-23.6-2.4-8.8-.2-17.6-.1-19.5.1zm9.5 50.3l5.9 3.3 6.5-3.3c6-3.1 7.3-3.4 15.7-3.4 8.1 0 9.6.3 14.8 3 7.3 3.8 11.3 9.1 12.5 16.5.9 5.6 3.6 9 7.1 9 2.8 0 7.4 4.4 9.5 8.9 1 2.3 1.6 4.3 1.4 4.5-.2.2-5.1.1-10.9-.3l-10.5-.6 9.3-1.4c5-.8 9.2-1.7 9.2-2.1 0-1-5.8-4.4-10.2-6-3.8-1.4-7.3-.4-21.3 5.9-21.3 9.7-43.7 9.7-65 0-14-6.3-17.5-7.3-21.3-5.9-4.4 1.6-10.2 5-10.2 6 0 .4 4.2 1.3 9.3 2.1l9.2 1.4-11 .7c-6 .3-11.1.5-11.3.3-.2-.2.1-1.9.8-3.9 1.4-4.2 6.7-9.2 10.9-10.1 3.9-.8 6.1-3.9 6.1-8.4 0-4.2 4-11.2 8.1-14.2 6.3-4.5 11.8-5.9 21-5.6 7.5.3 9.2.7 14.4 3.6zm-50.1 45.5c-3.8 3.8-4.3 7-1.9 11.6.9 1.7 1.7 3 1.9 3 .3 0 1.3.3 2.3.6 1 .3 1.4.2.7-.3-1.4-1.1-4.4-5.6-4.4-6.5 0-1.3 8.8-.9 10 .4.5.7 1.9 2.5 3.1 4 3.4 4.7 12.2 3.3 14-2.1.3-.7 1.6-.9 3.6-.5 2.8.6 3.1.9 2.2 2.6-.6 1-2.5 2.8-4.2 3.8-1.8 1.1-2.8 2-2.4 2 1.6 0 7.7-2.9 7.7-3.8 0-.4.9-1.8 2-2.9 2.6-2.8 1.9-3-13.3-4.4-6.7-.6-14.6-1.4-17.6-1.7l-5.3-.7 3.3-4.3 3.4-4.3 15.8.6c8.7.3 16.7.9 17.7 1.5 2.6 1.4 3.2 5.2 1.9 12.6-1.7 9.8-4.2 12.2-14.3 13.6-11.1 1.5-36 .2-38.6-2.1-2.4-1.9-4.9-16.3-3.3-18.4.6-.6 1.3-2.4 1.7-3.9.6-2.6.9-2.7 7.9-3.1 3.9-.1 7.7-.4 8.4-.5.6-.1-.4 1.3-2.3 3.2zm110.8.3c2.6 2.5 3.7 5.3 2.1 5.3-4.3 0-34.7 3.1-35.5 3.6-.6.4-.6.9-.1 1.3.5.3 1.6 1.8 2.5 3.2.9 1.5 3.1 3.2 4.8 3.7l3.1 1.1-3.8-3.6c-3.5-3.3-3.7-3.6-1.8-4.4 3.2-1.2 5.5-1 5.5.5 0 2.2 4 4.6 7.5 4.6s7.5-2.4 7.5-4.5c0-2 3.2-3.5 7.4-3.5 2.8 0 3.6.4 3.6 1.8 0 1.1-.9 2.7-2 3.7-2.4 2.2-2 3.1.8 1.6 4.6-2.5 5.2-10.3 1-14.9l-2.1-2.2h13.8l2.3 4.9c3.3 7.4 2.4 18.8-1.7 21.1-1 .5-10.8 1-21.7 1.1-27.2.3-29.4-.9-31-16.4-1.1-10.5-.8-10.7 19-10.7h16l2.8 2.7zM67.9 162c.5 0 1.4 2.8 2.1 6.2 1.2 5.4 6.1 21.2 8.6 27.2.7 1.7.3 1.9-3.9 1.4-18.1-2.1-26-24.1-13.4-37.2l4-4.1.9 3.2c.5 1.8 1.2 3.3 1.7 3.3zm171.9-1.6c6.3 7.2 7 19.1 1.6 26.9-3.3 4.8-11.9 9.7-16.9 9.7h-3.2l3.2-9.3c1.8-5 4-12.6 5-16.7s2.7-8.4 3.7-9.6c1-1.1 1.8-2.6 1.8-3.2 0-2.1 1.7-1.3 4.8 2.2zm-79.9.2c1.2 1.5 2.6 4.5 3.2 6.8 1.8 6.6 4.5 11 8.1 13.1 2.9 1.8 5.4 2 22.9 2.3 11.1.2 21.2-.1 23.2-.6l3.6-1-2 5.6c-1.1 3.2-4.6 10.9-7.7 17.2-4.9 10.1-6.6 12.5-14.1 20-4.8 4.7-10.1 9.3-11.8 10.3l-3.3 1.8v-2.5c0-1.4-.4-2.6-1-2.6-.5 0-1 1.3-1 3 0 1.6-.4 3-1 3-.5 0-1-.7-1-1.5 0-2.7-2-1.5-2.1 1.2 0 1.6-.3 2.2-.6 1.5-.8-1.9-2.3-1.4-2.3.8 0 2.7-1.6 2.5-2.5-.3-.7-2.1-.7-2.1-1.4.7-.7 3.5-3.1 4.7-3.1 1.7 0-3.1-2-2.5-2.1.6-.1 2.1-.2 2.3-.6.8-.9-3.6-2.3-4.1-2.3-.7 0 1.8-.4 3.2-1 3.2-.5 0-1-1.8-1-4s-.4-4-1-4c-.5 0-1 2.1-1 4.6 0 2.5-.4 4.3-.9 4-.4-.3-.6-1.7-.4-3.1.6-2.8-.5-8.1-1.4-7.1-.3.3-.6 2.6-.7 5-.2 6.9-1.6 6.7-1.6-.3 0-3.9-.4-6-1-5.6-.5.3-1 3.1-1 6.1 0 3-.4 5.4-1 5.4s-1-2.7-1-6.1c0-7.7-1.9-7-2.2.9l-.2 5.7-.3-5c-.6-7-2.3-8.3-2.3-1.7 0 2.9-.4 5.2-1 5.2-.5 0-1-1.8-1-4 0-5.1-1.9-5.3-2.1-.3-.2 3.1-.3 3.3-.6 1-.5-3.1-2.3-3.7-2.3-.7 0 1.1-.4 2-1 2-.5 0-1-.9-1-2s-.4-2-1-2c-.5 0-1 .7-1 1.5s-.4 1.5-1 1.5c-.5 0-1-.9-1-1.9 0-1.1-.4-2.3-1-2.6-.5-.3-1 .1-1 .9 0 .9-.4 1.6-1 1.6-.5 0-1-.7-1-1.6 0-1.1-.6-1.4-2-.9-1.6.5-2 .2-2-1.4 0-1.2-.4-2.1-1-2.1-.5 0-1 .7-1 1.6 0 .8-.4 1.2-1 .9-.5-.3-1-1.7-1-3.1 0-3-1.7-3.2-2.3-.2-.2 1.3-.5.4-.6-2 0-2.3-.5-4.2-1.1-4.2-.5 0-1-.9-1-2s-.4-2-1-2c-1.4 0-1.3 6.7.2 7.2.6.2.9.9.7 1.6-.7 2-13.2-10.1-18.4-17.9-4.5-6.7-12.5-23.9-14-30.1-.7-2.7-.7-2.7 3.1-1.7 2.2.7 11.8.9 23.5.7l19.7-.3 3.9-3.1c3-2.4 4.4-4.7 6.6-10.9 1.5-4.3 3.2-8.4 3.8-9.2.8-.9 3.7-1.3 8.9-1.3 7.3 0 8 .2 9.9 2.6zm-43.1 5.1c.2.8-.5 1.3-1.7 1.3-2.1 0-3.5-1.3-2.4-2.4 1-1 3.6-.3 4.1 1.1zm70.7-.2c0 .5-1 1.1-2.2 1.3-1.6.2-2.3-.2-2.3-1.3s.7-1.5 2.3-1.3c1.2.2 2.2.7 2.2 1.3zm30.5 59.4c0 .5-2 3.5-4.5 6.7-2.5 3.1-4.5 5.2-4.5 4.5 0-1.1 7.8-12.1 8.6-12.1.2 0 .4.4.4.9zm-120.5 9.8c5.2 3.6 9.5 7 9.5 7.4 0 .4-2.4 2.1-5.4 3.7l-5.5 2.9-3.2-7.1c-5-11.2-6-13.6-5.4-13.6.3 0 4.8 3 10 6.7zm120.4-.4c-2.4 3.1-4.5 5.4-4.8 5.2-.2-.3 1.5-3 3.9-6.1 2.3-3 4.4-5.3 4.7-5.1.2.3-1.5 3-3.8 6zm8.6 5.3c-4.6 4-7.5 5.8-7.4 4.7 0-1.2 10.2-9.3 10.8-8.7.3.3-1.2 2.1-3.4 4zm6.5.8c0 .8-10.2 8.6-11.2 8.6-.5 0 1.4-2 4.4-4.4 4.8-4.1 6.8-5.3 6.8-4.2zm-19.1 6.8c-.5 1.8-.9 3.4-.9 3.5 0 1.1-1.8-.2-3.3-2.2-2.2-3.1-1.5-4.5 2.3-4.5 2.8 0 2.8.1 1.9 3.2zm-85.9 5.9c2.9 4.5 7.4 10.7 10 13.8 6.5 7.9 6.5 7.9 4 10.6l-2.2 2.4-3.6-4.2c-4.2-5.1-11.7-16.2-16-23.9-3.3-5.7-3.2-6.5.9-6.7 1-.1 3.8 3.2 6.9 8zm50.9-7.2c1.1.7.8 1.8-1.5 5.7-7.3 12.8-20.1 30-27.1 36.6l-2.9 2.8-2.5-2.4-2.6-2.4 6-6.4c7.7-8.2 15.4-17.7 20.7-25.8 4.1-6.1 6.6-9 7.9-9 .3 0 1.2.4 2 .9zm-42.9 5.7c0 .9.6 1.4 1.3 1.1 1.3-.4 8.9 9.1 8.4 10.6-.7 2.1-2.5.8-6.9-5.1-4.8-6.3-5.7-8.2-3.8-8.2.6 0 1 .7 1 1.6zm23.4 5.6c-7.8 10.3-9.9 12.8-10.6 12.8-2.3 0 .7-5.4 8.6-15.3 2.1-2.6 3.2-3.3 3.7-2.5.6.9 1 .8 1.5-.5.3-1 .9-1.6 1.1-1.3.3.3-1.6 3.3-4.3 6.8zm-49 3.2c2 3.3 3.6 6.5 3.6 7 0 .6-1.3-1.2-2.9-3.9-1.6-2.8-4.3-6.3-6-7.9-1.6-1.6-2.8-3.3-2.4-3.9.8-1.3 3.6 1.9 7.7 8.7zm81.8-5c-4 4.5-7 9.7-9.3 15.8-1.5 4.1-1.9 4.5-1.4 1.9 1.1-6.8 10.5-22.8 12.6-21.5.6.3-.3 2-1.9 3.8zm-111.5-.2c2.9 1.8 5.3 3.5 5.3 3.8 0 .3-1.7 1.6-3.7 2.8-2.1 1.2-3.1 2.2-2.3 2.2.8 0 2.6-.9 4-2s2.9-2 3.5-2c.5 0 3.4 1.7 6.3 3.7 5 3.4 5.2 3.7 3.2 4.5-1.5.6-2 1.3-1.6 2.5.4.9.1 2.1-.6 2.6-.8.5-.2.7 2 .3 1.8-.3 3.2-.1 3.2.4 0 1.3-6.9 4.2-10 4.2-1.4 0-3.5 1.1-4.7 2.6-1.3 1.4-2.3 2.2-2.3 1.9 0-.4.1-.9.3-1 .4-.7-2.6-3.8-6.7-6.9-3.5-2.6-3.4-2.4.9 1.5 2.8 2.6 4.7 4.6 4.3 4.7-1.1 0-28.8-19.1-28.8-19.9 0-.7 4.4-3.1 5.7-3.1.3 0 0 .6-.6 1.4-1 1.1 0 2.3 5.1 6.1 3.5 2.6 5.2 3.6 3.8 2.3-1.4-1.2-3.9-3.3-5.5-4.5-4.1-3-2.8-4.8 6-8.4 3.9-1.5 7.2-2.8 7.5-2.8.2-.1 2.8 1.3 5.7 3.1zm67.3-1.5c0-2.1 2-2.3 2-.2 0 2.1 1.8 1.9 2.3-.3.3-1.2.5-1.2.6-.2 0 .8-.9 2.6-2 4l-2.1 2.4-1.9-2.4c-1-1.4-1.9-3.1-1.9-3.9 0-1.1.4-.9 1.5.5 1.3 1.7 1.4 1.7 1.5.1zM35.5 267.6c3 2 5.2 4.1 4.9 4.5-.6 1-1.5.6-6.2-2.8-1.8-1.4-3.5-2.3-3.8-2-.2.2 1.4 1.7 3.6 3.2 3.9 2.7 5.1 4.5 2.9 4.5-1.5 0-9.9-5.9-9.9-7 0-.6.5-1 1-1 .6 0 1-.7 1-1.5 0-2.1.3-2 6.5 2.1zM45 266c-2 1.3-3.3 1.3-2.5 0 .3-.6 1.4-1 2.3-1 1.5 0 1.5.2.2 1zm55 4.6c0 .9-.7 1.4-1.7 1.2-2.5-.5-2.8-2.8-.4-2.8 1.2 0 2.1.6 2.1 1.6zm5 .9c0 .3-.9.5-2 .5s-2-.7-2-1.5c0-1.3.4-1.4 2-.5 1.1.6 2 1.3 2 1.5zM55 274c0 .5-.7 1-1.6 1-.8 0-1.2-.5-.9-1 .3-.6 1-1 1.6-1 .5 0 .9.4.9 1zm48.5.1c1.1 1.7-.1 2.1-1.5.4-.8-.9-.8-1.5-.2-1.5.6 0 1.4.5 1.7 1.1zm-53.5 4c0 .4-1 1.5-2.2 2.3-1.6 1.2-2.5 1.3-3.3.5-.7-.8-.7-1.3.1-1.6.6-.2.9-1.5.6-2.9-.5-2.6-.5-2.6 2.2-.9 1.4 1 2.6 2.1 2.6 2.6zm-8-1.2c0 1.1-.5 2.3-1.1 2.6-1 .7-.8 5.4.7 14 .5 2.9.4 2.9-1.9-1-1.4-2.2-2.8-5.9-3.2-8.3-.6-3.7-.4-4.7 1.6-6.8 2.7-2.9 3.9-3 3.9-.5zm138.7 3.3c-.3.7-.5.2-.5-1.2s.2-1.9.5-1.3c.2.7.2 1.9 0 2.5zM55 279.5c0 1.7-3.3 6.6-5.7 8.5-1.8 1.4-2.3 2.4-1.6 2.8 1.3.8.3 7.2-1.2 7.5-.5.1-1.6-2.2-2.4-5.1l-1.4-5.3 4.9-4.4c4.4-3.9 7.4-5.5 7.4-4zm35.5.6c1.1 1.7-.1 2.1-1.5.4-.8-.9-.8-1.5-.2-1.5.6 0 1.4.5 1.7 1.1zm-22.7 10.1c2.1 2.1 1.5 4-1 3.2-2.1-.6-2.2-.5-.8 1.1 1.3 1.6 1.3 1.8 0 1.3-.8-.2-1.5-1-1.4-1.6.1-.7.2-2.1.3-3.2.1-2.3 1.1-2.6 2.9-.8z"/><path d="M126.1 157.7c1.3 1.6 2.5 3 2.7 3.2.1.2.5.1.8-.2 1.1-1-2.5-5.7-4.3-5.7-1.3 0-1.2.5.8 2.7zM171.4 157.5c-.9 1.4-1.3 2.9-.9 3.3.4.4 1 .1 1.3-.7.2-.7 1.3-2.2 2.3-3.2 1.5-1.5 1.6-1.9.4-1.9-.8 0-2.2 1.1-3.1 2.5zM146.7 200.8c-.5.7-.7 2.7-.5 4.4.2 1.9-.2 3.3-.9 3.5-.9.3-1.3-.8-1.3-3.6 0-2.3-.5-4.1-1.1-4.1-.7 0-1 1.4-.7 3.5.3 2.4 0 3.5-.9 3.5-.7 0-1.3-1.1-1.3-2.5s-.4-2.5-1-2.5c-.5 0-1 1.1-1 2.5s-.4 2.5-1 2.5c-.5 0-1-.9-1-2s-.4-2-1-2c-.5 0-1 .9-1 2s-.4 2-1 2c-.5 0-1-.7-1-1.5s-.4-1.5-1-1.5c-.5 0-1 .7-1 1.5s-.7 1.5-1.5 1.5-1.5-.5-1.5-1.1c0-.8-.4-.8-1.3-.1-.7.6-3.4.8-6 .6-4.1-.5-4.7-.3-4.7 1.3 0 1-.3 2.8-.6 4.1-.4 1.3-.2 2.2.3 2 .6-.2 3.1 2 5.6 4.8 13.9 15.4 46.2 16.3 61.4 1.8 3.1-3 4.3-3.6 5.2-2.7 1.4 1.5 1.4 4.3.1 4.3-.5 0-1 .9-1 2s-.4 2-.9 2c-1.3 0-2 3.6-1 5.1.7 1.1.9 1 .9-.4 0-.9.7-1.7 1.5-1.7s1.5-.7 1.5-1.5.5-1.5 1-1.5c1.4 0 1.3-7.7-.1-8.2-.7-.2-1.1-2.6-1-6l.1-5.7-7.1.6c-5.5.5-7.3.3-8.1-.8-.7-1.1-1.1-1.1-1.5-.2-.7 1.8-3.3 1.6-3.3-.2 0-.8-.4-1.5-1-1.5-.5 0-1 .7-1 1.5s-.4 1.5-1 1.5c-.5 0-1-.9-1-2 0-2.7-1.8-2.5-2.2.2-.3 2.1-.9 2.3-7 2.6l-6.7.3-.3-4.8c-.2-3-.6-4.3-1.1-3.5zM134 212.5c0 1-3.4 7.5-4 7.5-.6 0-3-5.9-3-7.3 0-.4 1.6-.7 3.5-.7s3.5.2 3.5.5zm42 1.2c-.1 1-.7 2.9-1.4 4.2l-1.4 2.5-1.6-3.2c-2.3-4.4-2-5.2 1.4-5.2 2.2 0 3 .5 3 1.7zm-27.1 0c0 .5-1.1 3-2.3 5.8l-2.3 5-1.2-2.8c-.6-1.5-1.8-4.1-2.6-5.7l-1.6-3h5.1c2.7 0 5 .3 4.9.7zm15.1-.2c0 .3-1.2 2.9-2.7 5.8l-2.6 5.2-1.3-3.1c-.7-1.7-1.6-4.3-2-5.8-.6-2.5-.5-2.6 4-2.6 2.5 0 4.6.2 4.6.5zm15.8 4.2c-1.8 2.2-2.8 1.4-1.6-1.2.8-1.8 1.4-2.2 1.9-1.3.4.7.3 1.8-.3 2.5zm-54.4-1.1c.9 2.4.7 2.8-.9 1.4-1.7-1.4-2-3-.6-3 .5 0 1.2.7 1.5 1.6zm14.1 4c1.4 3.1 2.5 5.8 2.5 5.9 0 .6-7.5-1.7-8.7-2.7-1-.8-.8-1.9.7-4.9 1.1-2.1 2.3-3.9 2.5-3.9.3 0 1.6 2.5 3 5.6zm14-1.9c3.3 8 3.3 8.3-2 8.3-2.6 0-4.5-.4-4.3-.8.2-.4 1.2-3.1 2.2-6 1.1-2.9 2.1-5.2 2.3-5.2.1 0 1 1.7 1.8 3.7zm15.5-.5c1.1 1.8 2 3.8 2 4.5 0 .9-8.9 4.8-9.5 4-.4-.3 4.7-11.7 5.1-11.7.3 0 1.3 1.5 2.4 3.2z"/><path d="M150 204c0 2.2.5 4 1 4 .6 0 1-1.8 1-4s-.4-4-1-4c-.5 0-1 1.8-1 4zM154 204.5c0 1.9.5 3.5 1 3.5.6 0 1-1.6 1-3.5s-.4-3.5-1-3.5c-.5 0-1 1.6-1 3.5zM158 205.5c0 1.4.5 2.5 1 2.5.6 0 1-1.1 1-2.5s-.4-2.5-1-2.5c-.5 0-1 1.1-1 2.5zM109.6 217.2c-1.8 3.5-2.1 8.4-.6 9.3.6.4 1-1.2 1-4s.4-4.4 1-4c.6.4 1-.5 1-1.9 0-3.4-.5-3.3-2.4.6zM73.4 257.8c-4 .4-9.2 5.7-6.6 6.6.9.3 2.4 1.1 3.3 1.7 2 1.5 6.5.4 7.3-1.8.6-1.5.4-1.5-1.4.2-2.3 2.1-2.4 1.8-.9-2.2.8-2.2 1.2-2.4 1.9-1.3 1.1 1.7 1.2.3.2-2-.5-1-1.8-1.4-3.8-1.2zm-.6 3.3c.3 1.2.2 1.2-.6 0-.6-.8-1.5-1-2.2-.6-.9.5-1.1.4-.6-.4 1-1.5 2.8-1 3.4 1zM85 265.6c-1.6.8-1.9 1.4-.9 1.4.8 0 2.4-.7 3.5-1.5 2.4-1.8.7-1.8-2.6.1zM84.5 269.9c-.6.5-2.1 1.1-3.5 1.4l-2.5.4 2.6.2c1.5 0 3.2-.6 3.9-1.4 1.4-1.6 1-2.1-.5-.6z"/></svg>